<?xml version="1.0" encoding="UTF-8" standalone="no"?>
<!DOCTYPE svg PUBLIC "-//W3C//DTD SVG 1.1//EN"
 "http://www.w3.org/Graphics/SVG/1.1/DTD/svg11.dtd">
<!-- Generated by graphviz version 2.43.0 (0)
 -->
<!-- Title: workflow Pages: 1 -->
<svg width="709pt" height="1678pt"
 viewBox="0.00 0.00 708.54 1677.80" xmlns="http://www.w3.org/2000/svg" xmlns:xlink="http://www.w3.org/1999/xlink">
<g id="graph0" class="graph" transform="scale(1 1) rotate(0) translate(4 1673.8)">
<title>workflow</title>
<polygon fill="white" stroke="transparent" points="-4,4 -4,-1673.8 704.54,-1673.8 704.54,4 -4,4"/>
<!-- v0 -->
<g id="node1" class="node">
<title>v0</title>
<ellipse fill="black" stroke="black" cx="210.54" cy="-1651.2" rx="3.6" ry="3.6"/>
<text text-anchor="middle" x="141.94" y="-1658.6" font-family="Times,serif" font-size="14.00">Channel.fromPath</text>
</g>
<!-- v1 -->
<g id="node2" class="node">
<title>v1</title>
<ellipse fill="none" stroke="black" cx="210.54" cy="-1607.1" rx="3.5" ry="3.5"/>
<text text-anchor="middle" x="191.54" y="-1614.4" font-family="Times,serif" font-size="14.00">map</text>
</g>
<!-- v0&#45;&gt;v1 -->
<g id="edge1" class="edge">
<title>v0&#45;&gt;v1</title>
<path fill="none" stroke="black" d="M210.54,-1647.44C210.54,-1642.15 210.54,-1630.28 210.54,-1620.95"/>
<polygon fill="black" stroke="black" points="214.04,-1620.93 210.54,-1610.93 207.04,-1620.93 214.04,-1620.93"/>
</g>
<!-- v2 -->
<g id="node3" class="node">
<title>v2</title>
<ellipse fill="none" stroke="black" cx="210.54" cy="-1563.1" rx="3.5" ry="3.5"/>
<text text-anchor="middle" x="166.04" y="-1570.4" font-family="Times,serif" font-size="14.00">groupTuple</text>
</g>
<!-- v1&#45;&gt;v2 -->
<g id="edge2" class="edge">
<title>v1&#45;&gt;v2</title>
<path fill="none" stroke="black" d="M210.54,-1603.34C210.54,-1598.07 210.54,-1586.23 210.54,-1576.92"/>
<polygon fill="black" stroke="black" points="214.04,-1576.92 210.54,-1566.92 207.04,-1576.92 214.04,-1576.92"/>
</g>
<!-- v3 -->
<g id="node4" class="node">
<title>v3</title>
<ellipse fill="none" stroke="black" cx="210.54" cy="-1519.1" rx="3.5" ry="3.5"/>
<text text-anchor="middle" x="191.54" y="-1526.4" font-family="Times,serif" font-size="14.00">map</text>
</g>
<!-- v2&#45;&gt;v3 -->
<g id="edge3" class="edge">
<title>v2&#45;&gt;v3</title>
<path fill="none" stroke="black" d="M210.54,-1559.34C210.54,-1554.07 210.54,-1542.23 210.54,-1532.92"/>
<polygon fill="black" stroke="black" points="214.04,-1532.92 210.54,-1522.92 207.04,-1532.92 214.04,-1532.92"/>
</g>
<!-- v4 -->
<g id="node5" class="node">
<title>v4</title>
<ellipse fill="none" stroke="black" cx="108.54" cy="-1446.6" rx="3.5" ry="3.5"/>
<text text-anchor="middle" x="89.54" y="-1453.9" font-family="Times,serif" font-size="14.00">map</text>
</g>
<!-- v3&#45;&gt;v4 -->
<g id="edge4" class="edge">
<title>v3&#45;&gt;v4</title>
<path fill="none" stroke="black" d="M206.99,-1518.41C193.94,-1519.35 148.17,-1520.79 123.54,-1497.6 113.38,-1488.03 110.01,-1471.87 108.95,-1460.52"/>
<polygon fill="black" stroke="black" points="112.44,-1460.18 108.48,-1450.36 105.44,-1460.51 112.44,-1460.18"/>
<text text-anchor="middle" x="163.04" y="-1486.4" font-family="Times,serif" font-size="14.00">fastq_pairs</text>
</g>
<!-- v6 -->
<g id="node8" class="node">
<title>v6</title>
<ellipse fill="none" stroke="black" cx="202.54" cy="-1446.6" rx="67.69" ry="18"/>
<text text-anchor="middle" x="202.54" y="-1442.9" font-family="Times,serif" font-size="14.00">BWA_ALIGN</text>
</g>
<!-- v3&#45;&gt;v6 -->
<g id="edge7" class="edge">
<title>v3&#45;&gt;v6</title>
<path fill="none" stroke="black" d="M210.24,-1515.42C209.48,-1508.76 207.45,-1490.84 205.66,-1475.09"/>
<polygon fill="black" stroke="black" points="209.09,-1474.24 204.48,-1464.7 202.13,-1475.03 209.09,-1474.24"/>
<text text-anchor="middle" x="248.04" y="-1486.4" font-family="Times,serif" font-size="14.00">fastq_pairs</text>
</g>
<!-- v7 -->
<g id="node10" class="node">
<title>v7</title>
<ellipse fill="none" stroke="black" cx="392.54" cy="-1446.6" rx="103.98" ry="18"/>
<text text-anchor="middle" x="392.54" y="-1442.9" font-family="Times,serif" font-size="14.00">COUNT_LIGATIONS</text>
</g>
<!-- v3&#45;&gt;v7 -->
<g id="edge9" class="edge">
<title>v3&#45;&gt;v7</title>
<path fill="none" stroke="black" d="M213.7,-1517.55C224.69,-1515.59 262.15,-1508.46 291.54,-1497.6 313.05,-1489.66 336.03,-1478.51 354.63,-1468.75"/>
<polygon fill="black" stroke="black" points="356.47,-1471.74 363.66,-1463.95 353.19,-1465.56 356.47,-1471.74"/>
<text text-anchor="middle" x="365.04" y="-1486.4" font-family="Times,serif" font-size="14.00">fastq_pairs</text>
</g>
<!-- v5 -->
<g id="node6" class="node">
<title>v5</title>
<ellipse fill="none" stroke="black" cx="108.54" cy="-1334.6" rx="108.58" ry="18"/>
<text text-anchor="middle" x="108.54" y="-1330.9" font-family="Times,serif" font-size="14.00">MAKE_HEADERFILE</text>
</g>
<!-- v4&#45;&gt;v5 -->
<g id="edge5" class="edge">
<title>v4&#45;&gt;v5</title>
<path fill="none" stroke="black" d="M108.54,-1442.88C108.54,-1432.03 108.54,-1391.03 108.54,-1362.98"/>
<polygon fill="black" stroke="black" points="112.04,-1362.95 108.54,-1352.95 105.04,-1362.95 112.04,-1362.95"/>
<text text-anchor="middle" x="148.04" y="-1399.4" font-family="Times,serif" font-size="14.00">sample_ids</text>
</g>
<!-- v20 -->
<g id="node7" class="node">
<title>v20</title>
<ellipse fill="none" stroke="black" cx="141.54" cy="-1004.6" rx="3.5" ry="3.5"/>
<text text-anchor="middle" x="124.54" y="-1011.9" font-family="Times,serif" font-size="14.00">join</text>
</g>
<!-- v5&#45;&gt;v20 -->
<g id="edge6" class="edge">
<title>v5&#45;&gt;v20</title>
<path fill="none" stroke="black" d="M108.54,-1316.38C108.54,-1302.95 108.54,-1283.84 108.54,-1267.1 108.54,-1267.1 108.54,-1267.1 108.54,-1090.6 108.54,-1062.32 124.61,-1032.12 134.32,-1016.45"/>
<polygon fill="black" stroke="black" points="137.41,-1018.13 139.95,-1007.84 131.55,-1014.29 137.41,-1018.13"/>
</g>
<!-- v21 -->
<g id="node20" class="node">
<title>v21</title>
<ellipse fill="none" stroke="black" cx="204.54" cy="-670.1" rx="3.5" ry="3.5"/>
<text text-anchor="middle" x="187.54" y="-677.4" font-family="Times,serif" font-size="14.00">join</text>
</g>
<!-- v20&#45;&gt;v21 -->
<g id="edge24" class="edge">
<title>v20&#45;&gt;v21</title>
<path fill="none" stroke="black" d="M143.11,-1001.12C147.82,-993.43 161.54,-969.16 161.54,-947.1 161.54,-947.1 161.54,-947.1 161.54,-727.1 161.54,-706.01 180.95,-687.98 193.69,-678.42"/>
<polygon fill="black" stroke="black" points="195.76,-681.25 201.98,-672.67 191.77,-675.49 195.76,-681.25"/>
<text text-anchor="middle" x="235.04" y="-826.4" font-family="Times,serif" font-size="14.00">header_and_res_txts</text>
</g>
<!-- v8 -->
<g id="node9" class="node">
<title>v8</title>
<ellipse fill="none" stroke="black" cx="287.54" cy="-1374.1" rx="3.5" ry="3.5"/>
<text text-anchor="middle" x="270.54" y="-1381.4" font-family="Times,serif" font-size="14.00">join</text>
</g>
<!-- v6&#45;&gt;v8 -->
<g id="edge8" class="edge">
<title>v6&#45;&gt;v8</title>
<path fill="none" stroke="black" d="M222.25,-1429.25C239.45,-1414.99 263.71,-1394.86 277.3,-1383.6"/>
<polygon fill="black" stroke="black" points="279.85,-1386.03 285.31,-1376.95 275.38,-1380.64 279.85,-1386.03"/>
</g>
<!-- v9 -->
<g id="node11" class="node">
<title>v9</title>
<ellipse fill="none" stroke="black" cx="287.54" cy="-1295.1" rx="3.5" ry="3.5"/>
<text text-anchor="middle" x="268.54" y="-1302.4" font-family="Times,serif" font-size="14.00">map</text>
</g>
<!-- v8&#45;&gt;v9 -->
<g id="edge11" class="edge">
<title>v8&#45;&gt;v9</title>
<path fill="none" stroke="black" d="M287.54,-1370.54C287.54,-1361.04 287.54,-1327.42 287.54,-1308.78"/>
<polygon fill="black" stroke="black" points="291.04,-1308.75 287.54,-1298.75 284.04,-1308.75 291.04,-1308.75"/>
</g>
<!-- v7&#45;&gt;v8 -->
<g id="edge10" class="edge">
<title>v7&#45;&gt;v8</title>
<path fill="none" stroke="black" d="M367.92,-1429.07C346.06,-1414.39 315.1,-1393.6 298.72,-1382.6"/>
<polygon fill="black" stroke="black" points="300.25,-1379.42 289.99,-1376.75 296.34,-1385.23 300.25,-1379.42"/>
</g>
<!-- v10 -->
<g id="node12" class="node">
<title>v10</title>
<ellipse fill="none" stroke="black" cx="287.54" cy="-1222.6" rx="61.99" ry="18"/>
<text text-anchor="middle" x="287.54" y="-1218.9" font-family="Times,serif" font-size="14.00">CHIMERIC</text>
</g>
<!-- v9&#45;&gt;v10 -->
<g id="edge12" class="edge">
<title>v9&#45;&gt;v10</title>
<path fill="none" stroke="black" d="M287.54,-1291.42C287.54,-1284.76 287.54,-1266.84 287.54,-1251.09"/>
<polygon fill="black" stroke="black" points="291.04,-1250.7 287.54,-1240.7 284.04,-1250.7 291.04,-1250.7"/>
<text text-anchor="middle" x="378.04" y="-1262.4" font-family="Times,serif" font-size="14.00">bwa_aligned_with_counts</text>
</g>
<!-- v11 -->
<g id="node13" class="node">
<title>v11</title>
<ellipse fill="none" stroke="black" cx="303.54" cy="-1164.1" rx="3.5" ry="3.5"/>
<text text-anchor="middle" x="284.54" y="-1171.4" font-family="Times,serif" font-size="14.00">map</text>
</g>
<!-- v10&#45;&gt;v11 -->
<g id="edge13" class="edge">
<title>v10&#45;&gt;v11</title>
<path fill="none" stroke="black" d="M292.34,-1204.65C294.81,-1195.94 297.76,-1185.53 300.01,-1177.57"/>
<polygon fill="black" stroke="black" points="303.45,-1178.27 302.81,-1167.69 296.71,-1176.36 303.45,-1178.27"/>
</g>
<!-- v18 -->
<g id="node21" class="node">
<title>v18</title>
<ellipse fill="none" stroke="black" cx="263.54" cy="-1164.1" rx="3.5" ry="3.5"/>
<text text-anchor="middle" x="219.04" y="-1171.4" font-family="Times,serif" font-size="14.00">groupTuple</text>
</g>
<!-- v10&#45;&gt;v18 -->
<g id="edge21" class="edge">
<title>v10&#45;&gt;v18</title>
<path fill="none" stroke="black" d="M280.34,-1204.65C276.55,-1195.74 272.01,-1185.03 268.6,-1177.01"/>
<polygon fill="black" stroke="black" points="271.77,-1175.53 264.64,-1167.69 265.33,-1178.26 271.77,-1175.53"/>
</g>
<!-- v12 -->
<g id="node14" class="node">
<title>v12</title>
<ellipse fill="none" stroke="black" cx="337.54" cy="-1091.6" rx="67.69" ry="18"/>
<text text-anchor="middle" x="337.54" y="-1087.9" font-family="Times,serif" font-size="14.00">FRAGMENT</text>
</g>
<!-- v11&#45;&gt;v12 -->
<g id="edge14" class="edge">
<title>v11&#45;&gt;v12</title>
<path fill="none" stroke="black" d="M304.67,-1160.75C307.83,-1154.2 317.03,-1135.12 324.9,-1118.81"/>
<polygon fill="black" stroke="black" points="328.13,-1120.17 329.32,-1109.64 321.82,-1117.13 328.13,-1120.17"/>
<text text-anchor="middle" x="375.54" y="-1131.4" font-family="Times,serif" font-size="14.00">input_frag_files</text>
</g>
<!-- v13 -->
<g id="node15" class="node">
<title>v13</title>
<ellipse fill="none" stroke="black" cx="342.54" cy="-1004.6" rx="37.09" ry="18"/>
<text text-anchor="middle" x="342.54" y="-1000.9" font-family="Times,serif" font-size="14.00">SORT</text>
</g>
<!-- v12&#45;&gt;v13 -->
<g id="edge15" class="edge">
<title>v12&#45;&gt;v13</title>
<path fill="none" stroke="black" d="M338.55,-1073.4C339.24,-1061.76 340.16,-1046.15 340.94,-1032.84"/>
<polygon fill="black" stroke="black" points="344.44,-1032.96 341.53,-1022.78 337.45,-1032.55 344.44,-1032.96"/>
</g>
<!-- v14 -->
<g id="node16" class="node">
<title>v14</title>
<ellipse fill="none" stroke="black" cx="337.54" cy="-946.1" rx="3.5" ry="3.5"/>
<text text-anchor="middle" x="293.04" y="-953.4" font-family="Times,serif" font-size="14.00">groupTuple</text>
</g>
<!-- v13&#45;&gt;v14 -->
<g id="edge16" class="edge">
<title>v13&#45;&gt;v14</title>
<path fill="none" stroke="black" d="M341.01,-986.34C340.25,-977.76 339.35,-967.57 338.66,-959.72"/>
<polygon fill="black" stroke="black" points="342.13,-959.31 337.77,-949.66 335.16,-959.93 342.13,-959.31"/>
</g>
<!-- v15 -->
<g id="node17" class="node">
<title>v15</title>
<ellipse fill="none" stroke="black" cx="335.54" cy="-873.6" rx="78.79" ry="18"/>
<text text-anchor="middle" x="335.54" y="-869.9" font-family="Times,serif" font-size="14.00">MERGE_SORT</text>
</g>
<!-- v14&#45;&gt;v15 -->
<g id="edge17" class="edge">
<title>v14&#45;&gt;v15</title>
<path fill="none" stroke="black" d="M337.46,-942.42C337.28,-935.76 336.77,-917.84 336.32,-902.09"/>
<polygon fill="black" stroke="black" points="339.81,-901.6 336.03,-891.7 332.81,-901.8 339.81,-901.6"/>
<text text-anchor="middle" x="410.04" y="-913.4" font-family="Times,serif" font-size="14.00">sort_files_by_sample</text>
</g>
<!-- v16 -->
<g id="node18" class="node">
<title>v16</title>
<ellipse fill="none" stroke="black" cx="316.54" cy="-786.6" rx="120.78" ry="18"/>
<text text-anchor="middle" x="316.54" y="-782.9" font-family="Times,serif" font-size="14.00">REMOVE_DUPLICATES</text>
</g>
<!-- v15&#45;&gt;v16 -->
<g id="edge18" class="edge">
<title>v15&#45;&gt;v16</title>
<path fill="none" stroke="black" d="M331.7,-855.4C329.09,-843.76 325.6,-828.15 322.63,-814.84"/>
<polygon fill="black" stroke="black" points="325.98,-813.77 320.38,-804.78 319.15,-815.3 325.98,-813.77"/>
</g>
<!-- v17 -->
<g id="node19" class="node">
<title>v17</title>
<ellipse fill="none" stroke="black" cx="299.54" cy="-728.1" rx="3.5" ry="3.5"/>
<text text-anchor="middle" x="280.54" y="-735.4" font-family="Times,serif" font-size="14.00">map</text>
</g>
<!-- v16&#45;&gt;v17 -->
<g id="edge19" class="edge">
<title>v16&#45;&gt;v17</title>
<path fill="none" stroke="black" d="M311.35,-768.34C308.73,-759.65 305.62,-749.32 303.25,-741.44"/>
<polygon fill="black" stroke="black" points="306.54,-740.23 300.31,-731.66 299.84,-742.24 306.54,-740.23"/>
</g>
<!-- v17&#45;&gt;v21 -->
<g id="edge20" class="edge">
<title>v17&#45;&gt;v21</title>
<path fill="none" stroke="black" d="M296.24,-726.84C281.48,-725.6 221.69,-719.81 209.54,-706.6 203.97,-700.54 202.82,-691.26 203.01,-683.71"/>
<polygon fill="black" stroke="black" points="206.5,-684.04 204.01,-673.74 199.53,-683.34 206.5,-684.04"/>
<text text-anchor="middle" x="247.54" y="-695.4" font-family="Times,serif" font-size="14.00">nodups_ch</text>
</g>
<!-- v24 -->
<g id="node25" class="node">
<title>v24</title>
<ellipse fill="none" stroke="black" cx="283.54" cy="-495.1" rx="3.5" ry="3.5"/>
<text text-anchor="middle" x="266.54" y="-502.4" font-family="Times,serif" font-size="14.00">join</text>
</g>
<!-- v17&#45;&gt;v24 -->
<g id="edge28" class="edge">
<title>v17&#45;&gt;v24</title>
<path fill="none" stroke="black" d="M299.54,-724.53C299.54,-716.59 299.54,-691.71 299.54,-671.1 299.54,-671.1 299.54,-671.1 299.54,-538.1 299.54,-527.16 294.74,-515.6 290.4,-507.38"/>
<polygon fill="black" stroke="black" points="293.33,-505.48 285.25,-498.62 287.3,-509.02 293.33,-505.48"/>
<text text-anchor="middle" x="337.54" y="-593.9" font-family="Times,serif" font-size="14.00">nodups_ch</text>
</g>
<!-- v22 -->
<g id="node23" class="node">
<title>v22</title>
<ellipse fill="none" stroke="black" cx="214.54" cy="-597.6" rx="40.09" ry="18"/>
<text text-anchor="middle" x="214.54" y="-593.9" font-family="Times,serif" font-size="14.00">STATS</text>
</g>
<!-- v21&#45;&gt;v22 -->
<g id="edge25" class="edge">
<title>v21&#45;&gt;v22</title>
<path fill="none" stroke="black" d="M204.42,-666.5C204.18,-660.61 203.82,-645.81 205.54,-633.6 205.92,-630.9 206.43,-628.1 207.02,-625.33"/>
<polygon fill="black" stroke="black" points="210.44,-626.08 209.37,-615.54 203.63,-624.44 210.44,-626.08"/>
<text text-anchor="middle" x="245.54" y="-637.4" font-family="Times,serif" font-size="14.00">stats_input</text>
</g>
<!-- v19 -->
<g id="node22" class="node">
<title>v19</title>
<ellipse fill="none" stroke="black" cx="204.54" cy="-1091.6" rx="3.5" ry="3.5"/>
<text text-anchor="middle" x="185.54" y="-1098.9" font-family="Times,serif" font-size="14.00">map</text>
</g>
<!-- v18&#45;&gt;v19 -->
<g id="edge22" class="edge">
<title>v18&#45;&gt;v19</title>
<path fill="none" stroke="black" d="M261.58,-1160.75C254.09,-1151.81 227.04,-1119.49 213.05,-1102.77"/>
<polygon fill="black" stroke="black" points="215.67,-1100.45 206.57,-1095.03 210.31,-1104.94 215.67,-1100.45"/>
</g>
<!-- v19&#45;&gt;v20 -->
<g id="edge23" class="edge">
<title>v19&#45;&gt;v20</title>
<path fill="none" stroke="black" d="M201.32,-1089.66C191.49,-1086.61 161.77,-1075.99 148.54,-1055.6 141.35,-1044.52 140.2,-1029.15 140.47,-1018.39"/>
<polygon fill="black" stroke="black" points="143.98,-1018.36 141.19,-1008.14 137,-1017.87 143.98,-1018.36"/>
<text text-anchor="middle" x="242.04" y="-1044.4" font-family="Times,serif" font-size="14.00">chimeric_sams_by_sample</text>
</g>
<!-- v23 -->
<g id="node24" class="node">
<title>v23</title>
<ellipse fill="none" stroke="black" cx="256.54" cy="-539.1" rx="3.5" ry="3.5"/>
<text text-anchor="middle" x="237.54" y="-546.4" font-family="Times,serif" font-size="14.00">map</text>
</g>
<!-- v22&#45;&gt;v23 -->
<g id="edge26" class="edge">
<title>v22&#45;&gt;v23</title>
<path fill="none" stroke="black" d="M226.69,-580.26C233.77,-570.72 242.51,-558.98 248.69,-550.66"/>
<polygon fill="black" stroke="black" points="251.69,-552.49 254.85,-542.38 246.07,-548.31 251.69,-552.49"/>
</g>
<!-- v23&#45;&gt;v24 -->
<g id="edge27" class="edge">
<title>v23&#45;&gt;v24</title>
<path fill="none" stroke="black" d="M257.99,-535.84C261.4,-530.54 270.11,-516.99 276.42,-507.18"/>
<polygon fill="black" stroke="black" points="279.48,-508.88 281.95,-498.58 273.6,-505.1 279.48,-508.88"/>
</g>
<!-- v25 -->
<g id="node26" class="node">
<title>v25</title>
<ellipse fill="none" stroke="black" cx="229.54" cy="-422.6" rx="3.5" ry="3.5"/>
<text text-anchor="middle" x="209.04" y="-429.9" font-family="Times,serif" font-size="14.00">view</text>
</g>
<!-- v24&#45;&gt;v25 -->
<g id="edge29" class="edge">
<title>v24&#45;&gt;v25</title>
<path fill="none" stroke="black" d="M280.26,-493.24C272.92,-491.16 255.12,-485.13 245.54,-473.6 236.67,-462.91 232.69,-447.24 230.92,-436.29"/>
<polygon fill="black" stroke="black" points="234.38,-435.71 229.7,-426.21 227.43,-436.55 234.38,-435.71"/>
<text text-anchor="middle" x="278.54" y="-462.4" font-family="Times,serif" font-size="14.00">hic_input</text>
</g>
<!-- v27 -->
<g id="node28" class="node">
<title>v27</title>
<ellipse fill="none" stroke="black" cx="339.54" cy="-422.6" rx="88.28" ry="18"/>
<text text-anchor="middle" x="339.54" y="-418.9" font-family="Times,serif" font-size="14.00">GEN_HIC_FILES</text>
</g>
<!-- v24&#45;&gt;v27 -->
<g id="edge31" class="edge">
<title>v24&#45;&gt;v27</title>
<path fill="none" stroke="black" d="M286.14,-492.71C291.46,-489.76 303.71,-482.44 311.54,-473.6 317.7,-466.64 323.1,-458.1 327.46,-450.06"/>
<polygon fill="black" stroke="black" points="330.67,-451.47 332.1,-440.98 324.44,-448.29 330.67,-451.47"/>
<text text-anchor="middle" x="354.54" y="-462.4" font-family="Times,serif" font-size="14.00">hic_input</text>
</g>
<!-- v26 -->
<g id="node27" class="node">
<title>v26</title>
<ellipse fill="black" stroke="black" cx="229.54" cy="-364.1" rx="1.8" ry="1.8"/>
</g>
<!-- v25&#45;&gt;v26 -->
<g id="edge30" class="edge">
<title>v25&#45;&gt;v26</title>
<path fill="none" stroke="black" d="M229.54,-418.87C229.54,-411.28 229.54,-389.58 229.54,-376.18"/>
<polygon fill="black" stroke="black" points="233.04,-376.16 229.54,-366.16 226.04,-376.16 233.04,-376.16"/>
</g>
<!-- v28 -->
<g id="node29" class="node">
<title>v28</title>
<ellipse fill="none" stroke="black" cx="339.54" cy="-364.1" rx="3.5" ry="3.5"/>
<text text-anchor="middle" x="320.54" y="-371.4" font-family="Times,serif" font-size="14.00">map</text>
</g>
<!-- v27&#45;&gt;v28 -->
<g id="edge32" class="edge">
<title>v27&#45;&gt;v28</title>
<path fill="none" stroke="black" d="M339.54,-404.34C339.54,-395.76 339.54,-385.57 339.54,-377.72"/>
<polygon fill="black" stroke="black" points="343.04,-377.66 339.54,-367.66 336.04,-377.66 343.04,-377.66"/>
</g>
<!-- v29 -->
<g id="node30" class="node">
<title>v29</title>
<ellipse fill="none" stroke="black" cx="148.54" cy="-291.6" rx="75.29" ry="18"/>
<text text-anchor="middle" x="148.54" y="-287.9" font-family="Times,serif" font-size="14.00">ARROWHEAD</text>
</g>
<!-- v28&#45;&gt;v29 -->
<g id="edge33" class="edge">
<title>v28&#45;&gt;v29</title>
<path fill="none" stroke="black" d="M336.01,-363.16C313.96,-363.46 195.03,-364.07 167.54,-342.6 160.28,-336.93 155.8,-328.15 153.02,-319.52"/>
<polygon fill="black" stroke="black" points="156.37,-318.47 150.49,-309.65 149.59,-320.2 156.37,-318.47"/>
<text text-anchor="middle" x="251.54" y="-331.4" font-family="Times,serif" font-size="14.00">hic_files_for_arrowhead</text>
</g>
<!-- v31 -->
<g id="node32" class="node">
<title>v31</title>
<ellipse fill="none" stroke="black" cx="339.54" cy="-291.6" rx="55.79" ry="18"/>
<text text-anchor="middle" x="339.54" y="-287.9" font-family="Times,serif" font-size="14.00">HICCUPS</text>
</g>
<!-- v28&#45;&gt;v31 -->
<g id="edge35" class="edge">
<title>v28&#45;&gt;v31</title>
<path fill="none" stroke="black" d="M339.54,-360.42C339.54,-353.76 339.54,-335.84 339.54,-320.09"/>
<polygon fill="black" stroke="black" points="343.04,-319.7 339.54,-309.7 336.04,-319.7 343.04,-319.7"/>
<text text-anchor="middle" x="423.54" y="-331.4" font-family="Times,serif" font-size="14.00">hic_files_for_arrowhead</text>
</g>
<!-- v33 -->
<g id="node34" class="node">
<title>v33</title>
<ellipse fill="none" stroke="black" cx="480.54" cy="-146.6" rx="3.5" ry="3.5"/>
<text text-anchor="middle" x="463.54" y="-153.9" font-family="Times,serif" font-size="14.00">join</text>
</g>
<!-- v28&#45;&gt;v33 -->
<g id="edge38" class="edge">
<title>v28&#45;&gt;v33</title>
<path fill="none" stroke="black" d="M343.12,-363.27C365.48,-364.25 485.8,-368.26 508.54,-342.6 555.7,-289.38 532.08,-249.7 508.54,-182.6 504.93,-172.3 496.87,-162.78 490.32,-156.28"/>
<polygon fill="black" stroke="black" points="492.63,-153.65 482.89,-149.49 487.91,-158.82 492.63,-153.65"/>
<text text-anchor="middle" x="616.54" y="-244.4" font-family="Times,serif" font-size="14.00">hic_files_for_arrowhead</text>
</g>
<!-- v30 -->
<g id="node31" class="node">
<title>v30</title>
<ellipse fill="black" stroke="black" cx="148.54" cy="-219.1" rx="1.8" ry="1.8"/>
</g>
<!-- v29&#45;&gt;v30 -->
<g id="edge34" class="edge">
<title>v29&#45;&gt;v30</title>
<path fill="none" stroke="black" d="M148.54,-273.53C148.54,-260.39 148.54,-242.59 148.54,-231.23"/>
<polygon fill="black" stroke="black" points="152.04,-230.92 148.54,-220.92 145.04,-230.92 152.04,-230.92"/>
</g>
<!-- v32 -->
<g id="node33" class="node">
<title>v32</title>
<ellipse fill="none" stroke="black" cx="339.54" cy="-219.1" rx="3.5" ry="3.5"/>
<text text-anchor="middle" x="318.54" y="-226.4" font-family="Times,serif" font-size="14.00">filter</text>
</g>
<!-- v31&#45;&gt;v32 -->
<g id="edge36" class="edge">
<title>v31&#45;&gt;v32</title>
<path fill="none" stroke="black" d="M339.54,-273.53C339.54,-260.98 339.54,-244.19 339.54,-232.8"/>
<polygon fill="black" stroke="black" points="343.04,-232.76 339.54,-222.76 336.04,-232.76 343.04,-232.76"/>
</g>
<!-- v32&#45;&gt;v33 -->
<g id="edge37" class="edge">
<title>v32&#45;&gt;v33</title>
<path fill="none" stroke="black" d="M342.89,-217.52C353.22,-215.67 385.36,-209.26 409.54,-197.6 415.98,-194.49 451.9,-168.51 470.05,-155.28"/>
<polygon fill="black" stroke="black" points="472.15,-158.07 478.16,-149.35 468.02,-152.42 472.15,-158.07"/>
<text text-anchor="middle" x="468.54" y="-186.4" font-family="Times,serif" font-size="14.00">filtered_ch</text>
</g>
<!-- v36 -->
<g id="node37" class="node">
<title>v36</title>
<ellipse fill="none" stroke="black" cx="332.54" cy="-146.6" rx="85.59" ry="18"/>
<text text-anchor="middle" x="332.54" y="-142.9" font-family="Times,serif" font-size="14.00">MOTIF_FINDER</text>
</g>
<!-- v32&#45;&gt;v36 -->
<g id="edge41" class="edge">
<title>v32&#45;&gt;v36</title>
<path fill="none" stroke="black" d="M338.54,-215.5C337.11,-211.65 334.55,-204.2 333.54,-197.6 332.42,-190.34 331.94,-182.41 331.79,-175.05"/>
<polygon fill="black" stroke="black" points="335.29,-174.81 331.77,-164.82 328.29,-174.83 335.29,-174.81"/>
<text text-anchor="middle" x="371.54" y="-186.4" font-family="Times,serif" font-size="14.00">filtered_ch</text>
</g>
<!-- v34 -->
<g id="node35" class="node">
<title>v34</title>
<ellipse fill="none" stroke="black" cx="480.54" cy="-88.1" rx="3.5" ry="3.5"/>
<text text-anchor="middle" x="461.54" y="-95.4" font-family="Times,serif" font-size="14.00">map</text>
</g>
<!-- v33&#45;&gt;v34 -->
<g id="edge39" class="edge">
<title>v33&#45;&gt;v34</title>
<path fill="none" stroke="black" d="M480.54,-142.87C480.54,-135.59 480.54,-115.31 480.54,-101.85"/>
<polygon fill="black" stroke="black" points="484.04,-101.67 480.54,-91.67 477.04,-101.67 484.04,-101.67"/>
</g>
<!-- v35 -->
<g id="node36" class="node">
<title>v35</title>
<ellipse fill="black" stroke="black" cx="480.54" cy="-44.1" rx="1.8" ry="1.8"/>
</g>
<!-- v34&#45;&gt;v35 -->
<g id="edge40" class="edge">
<title>v34&#45;&gt;v35</title>
<path fill="none" stroke="black" d="M480.54,-84.34C480.54,-78.79 480.54,-65.96 480.54,-56.47"/>
<polygon fill="black" stroke="black" points="484.04,-56.4 480.54,-46.4 477.04,-56.4 484.04,-56.4"/>
</g>
<!-- v37 -->
<g id="node38" class="node">
<title>v37</title>
<ellipse fill="none" stroke="black" cx="332.54" cy="-88.1" rx="3.5" ry="3.5"/>
<text text-anchor="middle" x="305.54" y="-95.4" font-family="Times,serif" font-size="14.00">collect</text>
</g>
<!-- v36&#45;&gt;v37 -->
<g id="edge42" class="edge">
<title>v36&#45;&gt;v37</title>
<path fill="none" stroke="black" d="M332.54,-128.34C332.54,-119.76 332.54,-109.57 332.54,-101.72"/>
<polygon fill="black" stroke="black" points="336.04,-101.66 332.54,-91.66 329.04,-101.66 336.04,-101.66"/>
</g>
<!-- v38 -->
<g id="node39" class="node">
<title>v38</title>
<ellipse fill="none" stroke="black" cx="332.54" cy="-44.1" rx="3.5" ry="3.5"/>
<text text-anchor="middle" x="312.04" y="-51.4" font-family="Times,serif" font-size="14.00">view</text>
</g>
<!-- v37&#45;&gt;v38 -->
<g id="edge43" class="edge">
<title>v37&#45;&gt;v38</title>
<path fill="none" stroke="black" d="M332.54,-84.34C332.54,-79.07 332.54,-67.23 332.54,-57.92"/>
<polygon fill="black" stroke="black" points="336.04,-57.92 332.54,-47.92 329.04,-57.92 336.04,-57.92"/>
</g>
<!-- v39 -->
<g id="node40" class="node">
<title>v39</title>
<ellipse fill="black" stroke="black" cx="332.54" cy="-1.8" rx="1.8" ry="1.8"/>
</g>
<!-- v38&#45;&gt;v39 -->
<g id="edge44" class="edge">
<title>v38&#45;&gt;v39</title>
<path fill="none" stroke="black" d="M332.54,-40.46C332.54,-35.25 332.54,-23.38 332.54,-14.35"/>
<polygon fill="black" stroke="black" points="336.04,-14.05 332.54,-4.05 329.04,-14.05 336.04,-14.05"/>
</g>
</g>
</svg>
